HIERARCHY
ROOT hip
{
  OFFSET -162.945 82.1424 -35.9309
  CHANNELS 6 Xposition Yposition Zposition Zrotation Xrotation Yrotation
  JOINT abdomen
  {
    OFFSET 0 20.6881 -0.73152
    CHANNELS 3 Zrotation Xrotation Yrotation
    JOINT chest
    {
      OFFSET 0 11.7043 -0.48768
      CHANNELS 3 Zrotation Xrotation Yrotation
      JOINT neck
      {
        OFFSET 0 22.1894 -2.19456
        CHANNELS 3 Zrotation Xrotation Yrotation
        JOINT head
        {
          OFFSET -0.24384 7.07133 1.2192
          CHANNELS 3 Zrotation Xrotation Yrotation
          JOINT leftEye
          {
            OFFSET 4.14528 8.04674 8.04672
            CHANNELS 3 Zrotation Xrotation Yrotation
            End Site
            {
              OFFSET 1 0 0
            }
          }
          JOINT rightEye
          {
            OFFSET -3.6576 8.04674 8.04672
            CHANNELS 3 Zrotation Xrotation Yrotation
            End Site
            {
              OFFSET 1 0 0
            }
          }
        }
      }
      JOINT rCollar
      {
        OFFSET -2.68224 19.2634 -4.8768
        CHANNELS 3 Zrotation Xrotation Yrotation
        JOINT rShldr
        {
          OFFSET -8.77824 -1.95073 1.46304
          CHANNELS 3 Zrotation Xrotation Yrotation
          JOINT rForeArm
          {
            OFFSET -28.1742 -1.7115 0.48768
            CHANNELS 3 Zrotation Xrotation Yrotation
            JOINT rHand
            {
              OFFSET -22.5879 0.773209 7.07136
              CHANNELS 3 Zrotation Xrotation Yrotation
              JOINT rThumb1
              {
                OFFSET -1.2192 -0.487915 3.41376
                CHANNELS 3 Zrotation Xrotation Yrotation
                JOINT rThumb2
                {
                  OFFSET -3.37035 -0.52449 3.41376
                  CHANNELS 3 Zrotation Xrotation Yrotation
                  End Site
                  {
                    OFFSET -1.78271 -1.18214 1.43049
                  }
                }
              }
              JOINT rIndex1
              {
                OFFSET -7.75947 0.938293 5.60832
                CHANNELS 3 Zrotation Xrotation Yrotation
                JOINT rIndex2
                {
                  OFFSET -2.54057 -0.884171 1.56538
                  CHANNELS 3 Zrotation Xrotation Yrotation
                  End Site
                  {
                    OFFSET -1.62519 -0.234802 1.16502
                  }
                }
              }
              JOINT rMid1
              {
                OFFSET -8.24714 1.18213 3.41376
                CHANNELS 3 Zrotation Xrotation Yrotation
                JOINT rMid2
                {
                  OFFSET -3.10165 -0.590103 1.0647
                  CHANNELS 3 Zrotation Xrotation Yrotation
                  End Site
                  {
                    OFFSET -2.48547 -0.328903 0.83742
                  }
                }
              }
              JOINT rRing1
              {
                OFFSET -8.82822 0.546677 1.51678
                CHANNELS 3 Zrotation Xrotation Yrotation
                JOINT rRing2
                {
                  OFFSET -2.60934 -0.819778 -0.0198488
                  CHANNELS 3 Zrotation Xrotation Yrotation
                  End Site
                  {
                    OFFSET -2.33842 -0.294052 0.168128
                  }
                }
              }
              JOINT rPinky1
              {
                OFFSET -8.27202 -0.0477905 -0.4584
                CHANNELS 3 Zrotation Xrotation Yrotation
                JOINT rPinky2
                {
                  OFFSET -1.82734 -0.647385 -0.700984
                  CHANNELS 3 Zrotation Xrotation Yrotation
                  End Site
                  {
                    OFFSET -1.69225 -0.51767 -0.607171
                  }
                }
              }
            }
          }
        }
      }
      JOINT lCollar
      {
        OFFSET 2.68224 19.2634 -4.8768
        CHANNELS 3 Zrotation Xrotation Yrotation
        JOINT lShldr
        {
          OFFSET 8.77824 -1.95073 1.46304
          CHANNELS 3 Zrotation Xrotation Yrotation
          JOINT lForeArm
          {
            OFFSET 28.1742 -1.7115 0.48768
            CHANNELS 3 Zrotation Xrotation Yrotation
            JOINT lHand
            {
              OFFSET 22.5879 0.773209 7.07136
              CHANNELS 3 Zrotation Xrotation Yrotation
              JOINT lThumb1
              {
                OFFSET 1.2192 -0.487915 3.41376
                CHANNELS 3 Zrotation Xrotation Yrotation
                JOINT lThumb2
                {
                  OFFSET 3.37035 -0.52449 3.41376
                  CHANNELS 3 Zrotation Xrotation Yrotation
                  End Site
                  {
                    OFFSET 1.78271 -1.18214 1.43049
                  }
                }
              }
              JOINT lIndex1
              {
                OFFSET 7.75947 0.938293 5.60832
                CHANNELS 3 Zrotation Xrotation Yrotation
                JOINT lIndex2
                {
                  OFFSET 2.54057 -0.884171 1.56538
                  CHANNELS 3 Zrotation Xrotation Yrotation
                  End Site
                  {
                    OFFSET 1.62519 -0.234802 1.16502
                  }
                }
              }
              JOINT lMid1
              {
                OFFSET 8.24714 1.18213 3.41376
                CHANNELS 3 Zrotation Xrotation Yrotation
                JOINT lMid2
                {
                  OFFSET 3.10165 -0.590103 1.0647
                  CHANNELS 3 Zrotation Xrotation Yrotation
                  End Site
                  {
                    OFFSET 2.48547 -0.328903 0.83742
                  }
                }
              }
              JOINT lRing1
              {
                OFFSET 8.82822 0.546677 1.51678
                CHANNELS 3 Zrotation Xrotation Yrotation
                JOINT lRing2
                {
                  OFFSET 2.60934 -0.819778 -0.0198488
                  CHANNELS 3 Zrotation Xrotation Yrotation
                  End Site
                  {
                    OFFSET 2.33842 -0.294052 0.168128
                  }
                }
              }
              JOINT lPinky1
              {
                OFFSET 8.27202 -0.0477905 -0.4584
                CHANNELS 3 Zrotation Xrotation Yrotation
                JOINT lPinky2
                {
                  OFFSET 1.82734 -0.647385 -0.700984
                  CHANNELS 3 Zrotation Xrotation Yrotation
                  End Site
                  {
                    OFFSET 1.69225 -0.51767 -0.607171
                  }
                }
              }
            }
          }
        }
      }
    }
  }
  JOINT rButtock
  {
    OFFSET -8.77824 4.35084 1.2192
    CHANNELS 3 Zrotation Xrotation Yrotation
    JOINT rThigh
    {
      OFFSET 0 -1.70687 -2.19456
      CHANNELS 3 Zrotation Xrotation Yrotation
      JOINT rShin
      {
        OFFSET 0 -36.8199 0.73152
        CHANNELS 3 Zrotation Xrotation Yrotation
        JOINT rFoot
        {
          OFFSET 0.73152 -45.1104 -5.12064
          CHANNELS 3 Zrotation Xrotation Yrotation
          End Site
          {
            OFFSET -1.1221 -3.69964 12.103
          }
        }
      }
    }
  }
  JOINT lButtock
  {
    OFFSET 8.77824 4.35084 1.2192
    CHANNELS 3 Zrotation Xrotation Yrotation
    JOINT lThigh
    {
      OFFSET 0 -1.70687 -2.19456
      CHANNELS 3 Zrotation Xrotation Yrotation
      JOINT lShin
      {
        OFFSET 0 -36.8199 0.73152
        CHANNELS 3 Zrotation Xrotation Yrotation
        JOINT lFoot
        {
          OFFSET -0.73152 -45.1104 -5.12064
          CHANNELS 3 Zrotation Xrotation Yrotation
          End Site
          {
            OFFSET 1.1221 -3.69964 12.103
          }
        }
      }
    }
  }
}
MOTION
Frames:	9
Frame Time:	0.00833333
-9.0545 80.7401 38.7741 2.38047 0.0111362 -0.0455975 -3.13122 0.00208551 -0.0845035 -0.863233 0.0181967 -0.149332 -3.61072e-014 -7.95139e-016 1.98784e-016 -1.08049e-013 3.18055e-015 4.47265e-016 -0 0 0 -0 0 0 -1.81412e-014 -2.98953e-017 1.98785e-016 -3.76624e-013 -8.88319e-016 1.39149e-015 -6.49693e-012 1.92642e-012 1.17681e-013 -7.45122e-011 -2.09181e-012 1.49486e-013 -1.75721e-010 -3.55137e-013 6.17028e-013 -3.03466e-010 -6.07486e-013 1.05753e-012 -1.75711e-010 -3.51451e-013 6.04305e-013 7.73091 5.47488 0.417314 -1.75721e-010 -3.54731e-013 6.13847e-013 2.90554 0.965183 0.102902 -1.75709e-010 -3.54234e-013 6.11462e-013 10.2786 0.731801 0.0259123 -1.75726e-010 -3.54632e-013 6.20208e-013 2.22167 -0.733487 -0.20892 -1.81382e-014 -3.14484e-017 -9.93923e-017 -3.82163e-013 -7.82715e-016 -7.95139e-016 -6.52481e-012 -1.96717e-012 7.63333e-014 -7.44501e-011 1.80303e-012 2.06736e-013 -1.75647e-010 -3.55164e-013 6.04305e-013 -3.03327e-010 -6.10667e-013 1.06867e-012 -1.75655e-010 -3.52644e-013 6.10667e-013 -7.73091 5.47488 -0.417314 -1.7565e-010 -3.54334e-013 6.04305e-013 -2.90554 0.965183 -0.102902 -1.75661e-010 -3.54035e-013 6.09076e-013 -10.2786 0.731801 -0.0259123 -1.75648e-010 -3.57415e-013 6.01125e-013 -2.22167 -0.733487 0.20892 -2.03217e-016 0 -3.88251e-019 -1.91852 -1.93503 0.0146201 -0.0085026 -2.07867 -0.0697786 -0.458944 4.0001 0.1325 2.03217e-016 0 3.88251e-019 -2.83795 -9.32629 0.322334 -0.00902665 11.3079 -0.235096 0.527061 -1.99512 -0.0183325 
-8.91298 78.1628 27.3706 0.327309 0.825657 46.4711 -4.2417 10.1036 0.69425 0.718548 -1.71791 -0.330973 -4.67959 2.81135 -2.01626 13.2828 -15.6885 0.681958 -0 0 0 -0 0 0 -8.2579e-015 -1.35639e-014 -2.26028e-014 15.9689 -2.17383 1.62494 -17.6808 -15.2096 15.0481 0.155771 -8.81554 -1.1876 -1.6435e-010 -1.77097e-009 -9.40114e-010 -2.61109e-010 -3.10814e-009 -1.6233e-009 -1.64341e-010 -1.77096e-009 -9.40122e-010 7.73091 5.47488 0.417314 -1.64349e-010 -1.77097e-009 -9.40117e-010 2.90554 0.965183 0.102902 -1.6434e-010 -1.77097e-009 -9.40116e-010 10.2786 0.731801 0.0259123 -1.64354e-010 -1.77097e-009 -9.40106e-010 2.22167 -0.733487 -0.20892 -8.28719e-015 -1.35652e-014 -2.28556e-014 -17.3212 14.1847 3.42529 20.1491 -17.9096 -15.1676 -0.0896604 -6.65042 0.912072 4.41589e-010 1.30895e-009 1.25294e-009 7.38214e-010 2.23247e-009 2.17651e-009 4.41582e-010 1.30895e-009 1.25295e-009 -7.73091 5.47488 -0.417314 4.41587e-010 1.30895e-009 1.25294e-009 -2.90554 0.965183 -0.102902 4.4158e-010 1.30895e-009 1.25295e-009 -10.2786 0.731801 -0.0259123 4.4159e-010 1.30895e-009 1.25294e-009 -2.22167 -0.733487 0.20892 -2.03217e-016 0 -3.88251e-019 -5.41045 -13.2517 -7.41418 -0.102743 16.2337 0.129248 -1.01223 0.217482 -2.78885 2.03217e-016 0 3.88251e-019 3.19074 -18.8798 5.71585 0.0302005 24.594 -0.427531 0.200239 -4.55845 -1.93665 
-8.53261 77.3962 27.7535 -2.46062 -0.238516 95.6262 -5.71762 20.7253 1.56013 2.38088 -3.55082 -0.528747 -9.43279 5.75761 -4.16857 27.7334 -32.1495 1.5581 -0 0 0 -0 0 0 7.69879e-015 -2.92344e-014 -4.9457e-014 33.0019 -4.34491 3.38117 -27.1391 -27.5868 34.1628 -0.0957099 -18.0191 -2.52663 -1.57919e-010 -3.7736e-009 -2.00387e-009 -2.24129e-010 -6.62318e-009 -3.46018e-009 -1.57911e-010 -3.77359e-009 -2.00388e-009 7.73091 5.47488 0.417314 -1.57918e-010 -3.7736e-009 -2.00388e-009 2.90554 0.965183 0.102902 -1.57912e-010 -3.7736e-009 -2.00387e-009 10.2786 0.731801 0.0259123 -1.57922e-010 -3.7736e-009 -2.00386e-009 2.22167 -0.733487 -0.20892 7.63609e-015 -2.92353e-014 -4.96589e-014 -37.7927 29.046 7.85746 30.007 -32.3296 -35.8612 0.0518491 -13.6736 1.9178 1.12715e-009 2.78414e-009 2.66616e-009 1.89468e-009 4.74839e-009 4.63124e-009 1.12714e-009 2.78414e-009 2.66618e-009 -7.73091 5.47488 -0.417314 1.12714e-009 2.78414e-009 2.66616e-009 -2.90554 0.965183 -0.102902 1.12714e-009 2.78414e-009 2.66617e-009 -10.2786 0.731801 -0.0259123 1.12715e-009 2.78414e-009 2.66616e-009 -2.22167 -0.733487 0.20892 -2.03217e-016 0 -3.88251e-019 -12.4907 -24.4722 -16.3749 -0.365785 35.5822 0.404435 -2.00894 -3.76953 -5.85471 2.03217e-016 0 3.88251e-019 11.6979 -28.5009 12.2288 0.197479 38.5567 -0.710198 -0.324672 -7.27045 -3.94812 
-8.19034 76.595 28.1309 -3.49524 -2.71632 139.431 -7.39413 30.2838 2.57041 3.84895 -5.18982 -0.696665 -13.4409 8.39207 -6.10712 41.411 -47.0322 2.89046 -0 0 0 -0 0 0 1.15087e-014 -4.0632e-014 -6.8206e-014 48.2783 -6.50043 4.90292 -28.5352 -32.1224 54.409 -0.73665 -26.3984 -3.93119 -1.41607e-010 -5.31219e-009 -2.82157e-009 -1.76394e-010 -9.32321e-009 -4.87203e-009 -1.416e-010 -5.31218e-009 -2.82157e-009 7.73091 5.47488 0.417314 -1.41605e-010 -5.3122e-009 -2.82158e-009 2.90554 0.965183 0.102902 -1.41601e-010 -5.3122e-009 -2.82157e-009 10.2786 0.731801 0.0259123 -1.4161e-010 -5.3122e-009 -2.82156e-009 2.22167 -0.733487 -0.20892 1.14148e-014 -4.06326e-014 -6.83679e-014 -58.49 41.8369 13.4265 29.7911 -36.9097 -58.9708 0.400357 -19.9304 2.89109 1.67606e-009 3.92756e-009 3.75762e-009 2.8213e-009 6.69863e-009 6.52738e-009 1.67606e-009 3.92756e-009 3.75763e-009 -7.73091 5.47488 -0.417314 1.67606e-009 3.92756e-009 3.75762e-009 -2.90554 0.965183 -0.102902 1.67606e-009 3.92756e-009 3.75762e-009 -10.2786 0.731801 -0.0259123 1.67606e-009 3.92756e-009 3.75761e-009 -2.22167 -0.733487 0.20892 -2.03217e-016 0 -3.88251e-019 -22.3993 -33.2951 -26.225 -0.863482 52.8554 0.847526 -3.27756 -7.26336 -8.70121 2.03217e-016 0 3.88251e-019 21.7464 -36.6068 19.5547 0.543002 51.1625 -1.12451 -0.97398 -9.64357 -5.8377 
-7.80912 75.6809 28.5109 -2.81313 -4.42341 170.031 -8.98027 37.1999 3.69363 4.85626 -6.34432 -0.787631 -16.0072 10.287 -7.45673 52.2975 -57.9844 4.88965 -0 0 0 -0 0 0 -1.50484e-014 -4.13472e-014 -6.66923e-014 58.9202 -8.63643 5.81795 -28.0021 -30.6247 68.2466 -1.52588 -32.7584 -5.18822 -1.00591e-010 -5.6907e-009 -3.02413e-009 -1.01769e-010 -9.98571e-009 -5.22127e-009 -1.00585e-010 -5.69069e-009 -3.02413e-009 7.73091 5.47488 0.417314 -1.00589e-010 -5.6907e-009 -3.02413e-009 2.90554 0.965183 0.102902 -1.00586e-010 -5.6907e-009 -3.02412e-009 10.2786 0.731801 0.0259123 -1.00593e-010 -5.6907e-009 -3.02411e-009 2.22167 -0.733487 -0.20892 -1.51679e-014 -4.13476e-014 -6.68413e-014 -74.62 50.1439 18.8454 28.4015 -34.3175 -74.2203 0.782917 -24.291 3.63672 1.88338e-009 4.24158e-009 4.04465e-009 3.1733e-009 7.23466e-009 7.02706e-009 1.88338e-009 4.24158e-009 4.04466e-009 -7.73091 5.47488 -0.417314 1.88338e-009 4.24158e-009 4.04464e-009 -2.90554 0.965183 -0.102902 1.88339e-009 4.24158e-009 4.04465e-009 -10.2786 0.731801 -0.0259123 1.88339e-009 4.24158e-009 4.04464e-009 -2.22167 -0.733487 0.20892 -2.03217e-016 0 -3.88251e-019 -31.9197 -38.54 -34.6068 -1.5975 64.9423 1.51028 -4.42508 -9.60818 -10.9138 2.03217e-016 0 3.88251e-019 31.0243 -42.0522 26.4137 1.03357 60.3789 -1.64492 -1.57544 -11.2044 -7.36671 
-7.36633 74.9161 28.8672 -2.3542 -5.09638 -177.965 -10.031 40.4536 4.72504 5.20396 -6.81918 -0.772252 -16.7377 11.1554 -7.94705 58.4073 -63.5172 7.09611 -0 0 0 -0 0 0 -1.03293e-013 -2.63619e-014 -2.36138e-014 62.8992 -10.8663 5.898 -28.014 -29.2358 73.4737 -2.07543 -36.3969 -5.9952 -9.54977e-012 -4.13288e-009 -2.20113e-009 3.2493e-011 -7.24645e-009 -3.79874e-009 -9.54394e-012 -4.13287e-009 -2.20113e-009 7.73091 5.47488 0.417314 -9.54732e-012 -4.13288e-009 -2.20114e-009 2.90554 0.965183 0.102902 -9.54489e-012 -4.13288e-009 -2.20112e-009 10.2786 0.731801 0.0259123 -9.55272e-012 -4.13288e-009 -2.20111e-009 2.22167 -0.733487 -0.20892 -1.03434e-013 -2.63618e-014 -2.37975e-014 -80.3728 52.9531 20.9179 28.3411 -32.4526 -79.7729 0.967344 -25.9959 3.94794 1.53166e-009 3.15002e-009 2.96942e-009 2.5856e-009 5.37441e-009 5.1623e-009 1.53165e-009 3.15001e-009 2.96944e-009 -7.73091 5.47488 -0.417314 1.53166e-009 3.15002e-009 2.96942e-009 -2.90554 0.965183 -0.102902 1.53166e-009 3.15002e-009 2.96942e-009 -10.2786 0.731801 -0.0259123 1.53166e-009 3.15002e-009 2.96941e-009 -2.22167 -0.733487 0.20892 -2.03217e-016 0 -3.88251e-019 -37.0356 -40.803 -38.5281 -2.13234 69.8377 2.00691 -5.04851 -10.437 -12.1787 2.03217e-016 0 3.88251e-019 36.6237 -44.7143 30.8577 1.41202 64.8741 -2.03089 -1.94398 -11.6158 -8.36896 
-6.9404 74.45 29.1974 -2.70445 -5.48716 -179.296 -10.5405 41.0956 5.57319 5.08358 -6.80866 -0.680419 -16.2041 11.2999 -7.81146 60.4295 -65.1916 8.82028 -0 0 0 -0 0 0 -2.34688e-013 -1.97474e-016 4.85252e-014 62.0521 -13.1652 5.37209 -28.0781 -29.8991 73.7946 -2.29991 -38.1014 -6.37468 1.16489e-010 -1.20683e-009 -6.53426e-010 2.08306e-010 -2.10351e-009 -1.12417e-009 1.16494e-010 -1.20682e-009 -6.53427e-010 7.73091 5.47488 0.417314 1.16491e-010 -1.20684e-009 -6.53429e-010 2.90554 0.965183 0.102902 1.16495e-010 -1.20684e-009 -6.53418e-010 10.2786 0.731801 0.0259123 1.16484e-010 -1.20684e-009 -6.53406e-010 2.22167 -0.733487 -0.20892 -2.34848e-013 -1.96562e-016 4.82736e-014 -77.4315 52.072 19.4565 28.351 -33.3521 -80.4046 0.946097 -25.8093 3.91326 7.84452e-010 1.06611e-009 9.32393e-010 1.33313e-009 1.82235e-009 1.62814e-009 7.84447e-010 1.0661e-009 9.32411e-010 -7.73091 5.47488 -0.417314 7.84453e-010 1.0661e-009 9.32389e-010 -2.90554 0.965183 -0.102902 7.84449e-010 1.06611e-009 9.32393e-010 -10.2786 0.731801 -0.0259123 7.84455e-010 1.06611e-009 9.32388e-010 -2.22167 -0.733487 0.20892 -2.03217e-016 0 -3.88251e-019 -37.9903 -41.6047 -38.574 -2.10524 69.5965 1.97792 -5.19957 -10.2053 -12.7417 2.03217e-016 0 3.88251e-019 38.765 -45.745 32.956 1.52006 65.998 -2.13829 -2.09597 -11.2168 -8.98243 
-6.47594 73.5985 29.5172 -3.49041 -5.74483 174.058 -10.8524 40.6534 6.34066 4.81587 -6.6064 -0.553439 -15.179 11.1858 -7.41895 60.5619 -65.2218 10.1153 -0 0 0 -0 0 0 -3.52664e-013 2.92463e-014 1.11174e-013 59.2965 -15.3245 4.54746 -28.1637 -31.478 72.137 -2.34675 -38.9194 -6.53386 2.31823e-010 1.76698e-009 9.21215e-010 3.65552e-010 3.12214e-009 1.59655e-009 2.31827e-010 1.76699e-009 9.21209e-010 7.73091 5.47488 0.417314 2.31825e-010 1.76698e-009 9.21212e-010 2.90554 0.965183 0.102902 2.31829e-010 1.76698e-009 9.21222e-010 10.2786 0.731801 0.0259123 2.31817e-010 1.76698e-009 9.21233e-010 2.22167 -0.733487 -0.20892 -3.52835e-013 2.92473e-014 1.10856e-013 -71.1834 49.5621 16.6305 28.3626 -35.4679 -79.0711 0.844569 -24.8919 3.74472 8.36781e-012 -1.02369e-009 -1.11165e-009 3.11288e-011 -1.74018e-009 -1.91874e-009 8.3622e-012 -1.02369e-009 -1.11163e-009 -7.73091 5.47488 -0.417314 8.36899e-012 -1.02369e-009 -1.11165e-009 -2.90554 0.965183 -0.102902 8.36077e-012 -1.02369e-009 -1.11165e-009 -10.2786 0.731801 -0.0259123 8.37072e-012 -1.02369e-009 -1.11165e-009 -2.22167 -0.733487 0.20892 -2.03217e-016 0 -3.88251e-019 -37.1168 -41.7981 -36.8896 -1.8268 67.1964 1.71269 -5.12922 -9.51141 -13.0006 2.03217e-016 0 3.88251e-019 39.3458 -46.1344 33.9642 1.47896 65.7405 -2.09303 -2.14915 -10.5537 -9.41553 
-6.00797 72.8127 29.8032 -4.08728 -5.99522 170.135 -11.444 40.6449 7.22452 4.72304 -6.50605 -0.43247 -14.4301 11.2776 -7.14047 61.7677 -65.7865 11.7565 -0 0 0 -0 0 0 -4.00653e-013 5.40694e-014 1.25781e-013 57.6121 -17.131 3.74075 -28.2583 -32.48 71.2282 -2.45059 -39.8907 -6.74621 2.9075e-010 3.46811e-009 1.82501e-009 4.44112e-010 6.10958e-009 3.15758e-009 2.90754e-010 3.46811e-009 1.825e-009 7.73091 5.47488 0.417314 2.90751e-010 3.46811e-009 1.82501e-009 2.90554 0.965183 0.102902 2.90757e-010 3.4681e-009 1.82502e-009 10.2786 0.731801 0.0259123 2.90742e-010 3.46811e-009 1.82503e-009 2.22167 -0.733487 -0.20892 -4.00823e-013 5.40692e-014 1.25433e-013 -66.7404 47.564 14.3766 28.4086 -36.8322 -78.4108 0.790825 -24.4041 3.6559 -4.30005e-010 -2.13291e-009 -2.20793e-009 -7.05136e-010 -3.63187e-009 -3.82169e-009 -4.30011e-010 -2.13291e-009 -2.20791e-009 -7.73091 5.47488 -0.417314 -4.30003e-010 -2.13291e-009 -2.20793e-009 -2.90554 0.965183 -0.102902 -4.30014e-010 -2.13291e-009 -2.20793e-009 -10.2786 0.731801 -0.0259123 -4.30001e-010 -2.13291e-009 -2.20793e-009 -2.22167 -0.733487 0.20892 -2.03217e-016 0 -3.88251e-019 -37.0224 -42.1086 -35.8428 -1.67087 65.6146 1.56258 -5.11652 -8.94459 -13.3572 2.03217e-016 0 3.88251e-019 40.6744 -46.6581 35.4516 1.50674 66.0905 -2.11565 -2.24291 -10.1677 -9.87913 
